<svg width="271" height="39" viewBox="0 0 271 39" fill="none" xmlns="http://www.w3.org/2000/svg">
<path d="M147.281 13.9514C149.592 13.9514 151.557 14.3154 152.482 15.8925H160.341C159.648 9.58401 154.1 8.85611 147.281 8.73479C140.577 8.73479 134.22 10.0693 134.22 15.8925C134.22 20.9878 141.733 21.3517 147.049 21.5944C150.055 21.7157 152.366 21.837 152.366 22.8075C152.366 24.3846 149.477 24.7486 147.165 24.7486C144.853 24.7486 142.888 24.3846 141.964 22.8075H134.104C134.798 29.116 140.346 29.9652 147.165 29.9652C153.869 29.9652 160.226 28.6307 160.226 22.8075C160.226 17.7122 152.713 17.3483 147.396 17.1056C144.391 16.9843 142.079 16.863 142.079 15.8925C142.079 14.3154 144.853 13.9514 147.281 13.9514ZM124.395 29.4799H131.908V23.5354H124.395V29.4799ZM231.309 15.2859C233.852 15.2859 236.048 15.7712 236.741 17.7122H244.37C243.907 10.9185 238.244 8.85612 231.309 8.85612C224.143 8.85612 218.132 11.0398 218.248 18.6828V20.1386C218.248 27.7815 224.143 29.9652 231.309 29.9652C238.244 29.9652 243.907 27.9028 244.37 21.1091H236.741C236.048 23.0502 233.967 23.5354 231.309 23.5354C228.304 23.5354 225.645 22.9288 225.645 19.6533V19.168C225.645 15.8925 228.188 15.2859 231.309 15.2859ZM270.838 14.558V9.34138H248.415V29.4799H270.838V24.2633H255.812V21.7157H270.838V17.1056H255.812V14.558H270.838ZM182.533 9.34138H164.04V29.4799H171.553V24.506H182.533C186.463 24.506 189.815 20.9878 189.815 16.863C189.815 12.8596 186.463 9.34138 182.533 9.34138ZM181.724 18.1975C181.377 18.5614 181.031 18.6828 180.568 18.6828H171.437V15.2859H180.568C181.031 15.2859 181.377 15.4072 181.724 15.7712C182.071 16.1351 182.186 16.4991 182.186 16.9843C182.186 17.4696 182.071 17.8335 181.724 18.1975ZM198.483 9.34138L188.197 29.4799H196.634L198.137 26.0831H207.73L209.233 29.4799H217.67L207.383 9.34138H198.483ZM200.333 21.1091L202.991 15.1646L205.65 21.1091H200.333ZM36.0905 18.4401H34.2411V29.4799H37.4774V18.4401H38.0554V9.34138H36.206V18.4401H36.0905ZM34.1256 38.9426V31.421H32.3918V38.9426H34.1256ZM34.7035 7.15768V0H33.5477V7.15768H30.7737V18.4401H29.6178V9.34138H26.6127V18.4401H28.1153V31.2997H32.3918V18.4401H34.1256V7.15768H34.7035ZM8.35073 9.34138H0.837891V29.4799H23.2608V23.0502H8.35073V9.34138ZM49.498 15.6498H63.8302V9.4627H41.9852V29.6013H49.498V23.8994H63.8302V18.1975H49.498V15.6498ZM95.2686 9.34138H68.5691V15.7712H77.4689V29.4799H84.9817V15.7712H92.2634L95.2686 9.34138ZM101.51 9.34138L91.2232 29.4799H99.6607L101.163 26.0831H110.757L112.259 29.4799H120.697L110.41 9.34138H101.51ZM103.244 21.1091L105.902 15.1646L108.561 21.1091H103.244Z" fill="white"/>
</svg>
