<svg width="164" height="13" viewBox="0 0 164 13" fill="none" xmlns="http://www.w3.org/2000/svg">
<path d="M75.5526 0.167143H78.6389V12.8329H76.0303L69.1046 4.99571V12.8329H66V0.167143H68.8474L75.5526 7.63286V0.167143Z" fill="white"/>
<path d="M95.0592 6.51857C95.0592 8.10333 94.4652 9.5519 93.2772 10.8643C92.6771 11.5205 91.8995 12.0405 90.9442 12.4243C90.0012 12.8081 88.9602 13 87.8212 13C86.7925 13 85.825 12.8205 84.9187 12.4614C84.0124 12.1024 83.2409 11.6133 82.604 10.9943C81.3181 9.69428 80.6751 8.20238 80.6751 6.51857C80.6751 4.93381 81.2752 3.47905 82.4754 2.15429C83.0755 1.4981 83.8471 0.978095 84.7901 0.594286C85.7331 0.198095 86.7619 0 87.8763 0C88.9541 0 89.9461 0.185714 90.8523 0.557143C91.7709 0.928572 92.5302 1.41762 93.1303 2.02429C93.7426 2.63095 94.2141 3.32429 94.5448 4.10429C94.8877 4.88429 95.0592 5.68905 95.0592 6.51857ZM87.858 2.69286C86.719 2.69286 85.776 3.03952 85.0289 3.73286C84.2941 4.42619 83.9267 5.37333 83.9267 6.57429C83.9267 7.15619 84.0124 7.67619 84.1839 8.13428C84.3676 8.59238 84.6003 8.96381 84.8819 9.24857C85.1636 9.52095 85.482 9.75619 85.8372 9.95429C86.2046 10.14 86.5537 10.27 86.8843 10.3443C87.2272 10.4062 87.5579 10.4371 87.8763 10.4371C88.9663 10.4371 89.891 10.0967 90.6503 9.41571C91.4341 8.73476 91.826 7.79381 91.826 6.59286C91.826 5.40429 91.4647 4.45714 90.7421 3.75143C90.0318 3.04571 89.0704 2.69286 87.858 2.69286Z" fill="white"/>
<path d="M105.362 10.4743H111.755V12.8329H102.203V0.167143H105.362V10.4743Z" fill="white"/>
<path d="M113.578 0.167143H116.738V12.8329H113.578V0.167143Z" fill="white"/>
<path d="M130.387 0.167143H133.125V12.8329H129.965V5.08857L126.603 9.17428H126.144L122.782 5.08857V12.8329H119.622V0.167143H122.396L126.364 4.97714L130.387 0.167143Z" fill="white"/>
<path d="M135.985 0.167143H139.145V12.8329H135.985V0.167143Z" fill="white"/>
<path d="M141.111 0.167143H153.345V2.54429H148.826V12.8329H145.648V2.54429H141.111V0.167143Z" fill="white"/>
<path d="M163.431 0.984286V3.58429C161.777 2.76714 160.436 2.35857 159.407 2.35857C159.064 2.35857 158.764 2.39571 158.507 2.47C158.25 2.5319 158.06 2.60619 157.938 2.69286C157.815 2.76714 157.717 2.86619 157.644 2.99C157.583 3.10143 157.546 3.1881 157.534 3.25C157.521 3.29952 157.515 3.34905 157.515 3.39857C157.515 3.77 157.803 4.0981 158.379 4.38286C158.673 4.53143 158.973 4.66762 159.279 4.79143L160.546 5.25571C161.465 5.60238 162.23 6.02952 162.843 6.53714C163.614 7.18095 164 8.08476 164 9.24857C164 9.92952 163.841 10.53 163.522 11.05C163.204 11.57 162.775 11.9662 162.236 12.2386C161.22 12.7462 160.173 13 159.095 13C158.189 13 157.295 12.8514 156.413 12.5543C155.531 12.2324 154.949 11.9724 154.668 11.7743V9.04429C155.121 9.34143 155.531 9.58905 155.899 9.78714C156.229 9.96048 156.689 10.1462 157.276 10.3443C157.877 10.53 158.458 10.6229 159.022 10.6229C160.271 10.6229 160.895 10.239 160.895 9.47143C160.895 9.1 160.736 8.80905 160.418 8.59857C160.075 8.37571 159.444 8.10952 158.526 7.8C157.668 7.50286 156.934 7.18095 156.321 6.83429C155.133 6.14095 154.509 5.06381 154.447 3.60286C154.447 2.57524 154.858 1.72095 155.678 1.04C156.511 0.346667 157.681 0 159.187 0C160.497 0 161.912 0.328095 163.431 0.984286Z" fill="white"/>
<rect y="5" width="52" height="2" fill="white"/>
</svg>
